<svg width="30" height="27" viewBox="0 0 30 27" fill="none" xmlns="http://www.w3.org/2000/svg">
<g clip-path="url(#clip0_504_46)">
<path d="M12.3134 12.6866L12.3133 12.6865L2.31519 2.68524C2.31514 2.68519 2.31509 2.68514 2.31504 2.68509C2.31499 2.68504 2.31495 2.68499 2.3149 2.68495C1.95669 2.32734 1.37636 2.32747 1.01839 2.6851C1.01835 2.68513 1.01832 2.68516 1.01829 2.6852M12.3134 12.6866L1.01829 2.6852M12.3134 12.6866C12.6716 13.0447 12.6716 13.6219 12.3134 13.9801L12.3134 13.9801L2.31498 23.9801C1.95682 24.3382 1.37655 24.3382 1.01854 23.9802C0.660487 23.622 0.660487 23.0447 1.01854 22.6865L1.01857 22.6865L9.83773 13.8636L10.3678 13.3333L9.83769 12.8031L1.01854 3.98174M12.3134 12.6866L1.01854 3.98174M1.01829 2.6852C0.660493 3.04338 0.660572 3.62364 1.01852 3.98172M1.01829 2.6852L1.01852 3.98172M1.01852 3.98172C1.01853 3.98173 1.01853 3.98174 1.01854 3.98174M1.01852 3.98172L1.01854 3.98174M28.3333 22.4167C28.841 22.4167 29.25 22.8257 29.25 23.3333C29.25 23.841 28.841 24.25 28.3333 24.25H13.3333C12.8257 24.25 12.4167 23.841 12.4167 23.3333C12.4167 22.8257 12.8257 22.4167 13.3333 22.4167H28.3333Z" stroke="#3294F8" stroke-width="1.5"/>
</g>
<defs>
<clipPath id="clip0_504_46">
<rect width="30" height="26.6667" fill="white"/>
</clipPath>
</defs>
</svg>
